<svg width="32" height="32" viewBox="0 0 32 32" fill="none" xmlns="http://www.w3.org/2000/svg">
<circle cx="16" cy="16" r="16" fill="white"/>
<path d="M32 15.9928C32 7.16021 24.8366 0 16 0C7.16344 0 0 7.16021 0 15.9928C0 23.9751 5.85094 30.5915 13.5 31.7913V20.6157H9.4375V15.9928H13.5V12.4694C13.5 8.46119 15.8888 6.24719 19.5434 6.24719C21.2934 6.24719 23.125 6.55955 23.125 6.55955V10.4953H21.1075C19.12 10.4953 18.5 11.7282 18.5 12.9941V15.9928H22.9375L22.2281 20.6157H18.5V31.7913C26.1491 30.5915 32 23.9751 32 15.9928Z" fill="#1877F2"/>
</svg>
