<svg width="32" height="32" viewBox="0 0 32 32" fill="none" xmlns="http://www.w3.org/2000/svg">
<path fill-rule="evenodd" clip-rule="evenodd" d="M16 32C24.8366 32 32 24.8366 32 16C32 7.16344 24.8366 0 16 0C7.16344 0 0 7.16344 0 16C0 24.8366 7.16344 32 16 32Z" fill="#6784FF"/>
<path d="M15.0703 20.2868C13.9911 21.366 12.4059 21.3547 11.5256 20.4743C10.6453 19.594 10.6339 18.0087 11.7131 16.9295C12.0807 16.562 12.0807 15.9661 11.7131 15.5985C11.3456 15.231 10.7497 15.231 10.3822 15.5985C8.66602 17.3148 8.48492 20.0955 10.1947 21.8053C11.9044 23.5151 14.6851 23.334 16.4013 21.6178L17.7663 20.2527C19.209 18.81 19.5617 16.6404 18.6383 14.9577C18.3882 14.5021 17.8161 14.3354 17.3604 14.5855C16.9048 14.8356 16.7381 15.4077 16.9882 15.8633C17.4792 16.758 17.3315 18.0256 16.4354 18.9217L15.0703 20.2868ZM16.9297 11.7132C18.0089 10.634 19.5941 10.6453 20.4744 11.5257C21.3547 12.406 21.3661 13.9913 20.2869 15.0705C19.9193 15.438 19.9193 16.0339 20.2869 16.4015C20.6544 16.769 21.2503 16.769 21.6178 16.4015C23.334 14.6852 23.5151 11.9045 21.8053 10.1947C20.0956 8.48491 17.3149 8.66601 15.5987 10.3822L14.2337 11.7473C12.791 13.19 12.4383 15.3596 13.3617 17.0423C13.6118 17.4979 14.1839 17.6646 14.6396 17.4145C15.0952 17.1644 15.2619 16.5923 15.0118 16.1367C14.5208 15.242 14.6685 13.9744 15.5646 13.0783L16.9297 11.7132ZM17.3782 16.8369C17.3582 16.4708 17.2612 16.1183 17.0904 15.8072C17.0215 15.6816 16.9888 15.546 16.9886 15.4123C16.9887 15.5461 17.0215 15.6817 17.0904 15.8072C17.2612 16.1183 17.3582 16.4708 17.3782 16.8369ZM18.9673 17.7189C18.8118 18.6125 18.3773 19.4767 17.6839 20.1701L16.3188 21.5352C14.6417 23.2124 11.9351 23.3808 10.2771 21.7228C9.49184 20.9375 9.11628 19.9169 9.11667 18.882C9.11626 19.917 9.49183 20.9375 10.2771 21.7228C11.9351 23.3809 14.6417 23.2124 16.3188 21.5353L17.6839 20.1702C18.3773 19.4767 18.8118 18.6125 18.9673 17.7189ZM11.8712 16.3035C11.8618 16.5012 11.7816 16.696 11.6307 16.847C11.1247 17.3529 10.8476 17.9692 10.7818 18.5787C10.8476 17.9693 11.1247 17.353 11.6307 16.847C11.7816 16.6961 11.8618 16.5012 11.8712 16.3035ZM16.8472 11.6307C17.9664 10.5115 19.6257 10.512 20.5569 11.4432C20.936 11.8224 21.1609 12.3223 21.2187 12.8573C21.1609 12.3223 20.936 11.8223 20.5569 11.4431C19.6257 10.512 17.9664 10.5114 16.8472 11.6307L15.4821 12.9958C14.8954 13.5826 14.615 14.3259 14.618 15.0316C14.615 14.3259 14.8954 13.5826 15.4821 12.9958L16.8472 11.6307ZM15.0114 16.5877C15.0118 16.8793 14.8571 17.1621 14.5835 17.3123C14.1843 17.5314 13.6831 17.3854 13.464 16.9862C13.1679 16.4466 13.0066 15.8547 12.9742 15.2532C13.0066 15.8547 13.1679 16.4466 13.464 16.9861C13.6831 17.3853 14.1843 17.5313 14.5835 17.3122C14.8571 17.162 15.0118 16.8793 15.0114 16.5877ZM20.1471 15.9135C20.1797 16.0621 20.2538 16.2035 20.3693 16.319C20.6913 16.641 21.2134 16.641 21.5353 16.319C22.3067 15.5477 22.7589 14.5585 22.8611 13.5538C22.7589 14.5585 22.3067 15.5476 21.5353 16.3189C21.2134 16.6409 20.6913 16.6409 20.3693 16.3189C20.2538 16.2034 20.1797 16.0621 20.1471 15.9135Z" fill="white"/>
</svg>
