<svg width="32" height="32" viewBox="0 0 32 32" fill="none" xmlns="http://www.w3.org/2000/svg">
<path fill-rule="evenodd" clip-rule="evenodd" d="M16 32C24.8366 32 32 24.8366 32 16C32 7.16344 24.8366 0 16 0C7.16344 0 0 7.16344 0 16C0 24.8366 7.16344 32 16 32Z" fill="#55ACEE"/>
<path fill-rule="evenodd" clip-rule="evenodd" d="M24.5161 9.31073C24.0221 9.63141 22.888 10.0974 22.3287 10.0974V10.0984C21.6901 9.42215 20.791 9 19.7938 9C17.8572 9 16.2867 10.5917 16.2867 12.5539C16.2867 12.8266 16.3179 13.0925 16.3755 13.3475H16.375C13.7479 13.2776 10.8747 11.943 9.14504 9.65879C8.0816 11.5245 9.00187 13.5995 10.2087 14.3555C9.79558 14.3871 9.03511 14.3073 8.67717 13.9533C8.65318 15.1916 9.24062 16.8323 11.3826 17.4276C10.9701 17.6525 10.2398 17.588 9.92232 17.5401C10.0338 18.5855 11.478 19.9521 13.0573 19.9521C12.4944 20.612 10.3766 21.809 8 21.4282C9.61406 22.4235 11.4952 23 13.4863 23C19.1444 23 23.5386 18.3521 23.3021 12.6183C23.3011 12.612 23.3011 12.6056 23.3006 12.5987C23.3011 12.584 23.3021 12.5693 23.3021 12.5539C23.3021 12.5361 23.3006 12.5193 23.3 12.5021C23.8151 12.145 24.5062 11.5134 25 10.6821C24.7136 10.842 23.8546 11.1621 23.0552 11.2415C23.5682 10.9609 24.3283 10.0417 24.5161 9.31073Z" fill="white"/>
</svg>
