<svg width="32" height="32" viewBox="0 0 32 32" fill="none" xmlns="http://www.w3.org/2000/svg">
<path fill-rule="evenodd" clip-rule="evenodd" d="M16 32C24.8366 32 32 24.8366 32 16C32 7.16344 24.8366 0 16 0C7.16344 0 0 7.16344 0 16C0 24.8366 7.16344 32 16 32Z" fill="#FE2C55"/>
<path fill-rule="evenodd" clip-rule="evenodd" d="M16.4173 10.6209C16.4887 10.2129 16.8773 9.93997 17.2853 10.0113C17.6933 10.0827 17.9662 10.4713 17.8948 10.8793L16.0674 21.3269C15.9961 21.7349 15.6074 22.0078 15.1994 21.9364C14.7914 21.8651 14.5185 21.4765 14.5899 21.0684L16.4173 10.6209ZM21.6536 11.6993C21.28 11.3127 20.6743 11.3127 20.3008 11.6993C19.9272 12.0859 19.9272 12.7127 20.3008 13.0993L23.272 16.1743L20.3015 19.2485C19.928 19.6351 19.928 20.2619 20.3015 20.6485C20.6751 21.0351 21.2808 21.0351 21.6543 20.6485L25.9401 16.213C25.9606 16.1919 25.9606 16.1575 25.9401 16.1364L25.631 15.8165C25.6279 15.8127 25.6245 15.809 25.6211 15.8054L21.6536 11.6993ZM11.853 20.6489C11.4664 21.0355 10.8395 21.0355 10.4529 20.6489L7.2276 17.4236L6.34689 16.5429L6.01587 16.2118C5.99471 16.1907 5.99471 16.1564 6.01587 16.1352L10.4514 11.6997C10.838 11.3131 11.4648 11.3131 11.8514 11.6997C12.238 12.0863 12.238 12.7131 11.8514 13.0997L8.77757 16.1735L11.853 19.2489C12.2396 19.6355 12.2396 20.2623 11.853 20.6489Z" fill="white"/>
</svg>
