<svg width="32" height="32" viewBox="0 0 32 32" fill="none" xmlns="http://www.w3.org/2000/svg">
<mask id="mask0" mask-type="alpha" maskUnits="userSpaceOnUse" x="0" y="0" width="32" height="32">
<path fill-rule="evenodd" clip-rule="evenodd" d="M16 32C24.8366 32 32 24.8366 32 16C32 7.16344 24.8366 0 16 0C7.16344 0 0 7.16344 0 16C0 24.8366 7.16344 32 16 32Z" fill="white"/>
</mask>
<g mask="url(#mask0)">
<path fill-rule="evenodd" clip-rule="evenodd" d="M0 32H32V0H0V32Z" fill="white"/>
<path d="M16.0131 0C7.16967 0 0 7.1579 0 15.9868C0 22.7632 4.21745 28.5526 10.1746 30.8816C10.0296 29.6184 9.91102 27.6711 10.2273 26.2895C10.5173 25.0395 12.0988 18.3421 12.0988 18.3421C12.0988 18.3421 11.6244 17.3816 11.6244 15.9737C11.6244 13.75 12.916 12.0921 14.5239 12.0921C15.8945 12.0921 16.5535 13.1184 16.5535 14.3421C16.5535 15.7105 15.6837 17.7632 15.2224 19.6711C14.8402 21.2632 16.0263 22.5658 17.5947 22.5658C20.4415 22.5658 22.6293 19.5658 22.6293 15.25C22.6293 11.4211 19.8748 8.75 15.9341 8.75C11.3739 8.75 8.6985 12.1579 8.6985 15.6842C8.6985 17.0526 9.22568 18.5263 9.88466 19.3289C10.0165 19.4868 10.0296 19.6316 9.99009 19.7895C9.87148 20.2895 9.59471 21.3816 9.54199 21.6053C9.47609 21.8947 9.30476 21.9605 9.00163 21.8158C6.99834 20.8816 5.74628 17.9737 5.74628 15.6184C5.74628 10.5789 9.41019 5.94737 16.3295 5.94737C21.878 5.94737 26.2009 9.89474 26.2009 15.1842C26.2009 20.6974 22.7215 25.1316 17.8978 25.1316C16.2767 25.1316 14.7479 24.2895 14.2339 23.2895C14.2339 23.2895 13.43 26.3421 13.2323 27.0921C12.8764 28.4868 11.9011 30.2237 11.2422 31.2895C12.7446 31.75 14.3262 32 15.9868 32C24.8303 32 31.9999 24.8421 31.9999 16.0132C32.0263 7.15789 24.8566 0 16.0131 0Z" fill="#E60019"/>
</g>
</svg>
